<svg xmlns="http://www.w3.org/2000/svg" viewBox="0 0 76.64 73.51"><defs><style>.cls-1{fill:#fff;}</style></defs><g id="Layer_2" data-name="Layer 2"><g id="Layer_1-2" data-name="Layer 1"><path class="cls-1" d="M24.08,0s-1,16.43.63,17.07l28.45-.35V.42S69.31,5.2,71,21.77l.56,9.41c6.34,1.75,2.25,2.4.84,6.89,5.74-.54,4.8.46-.84,7.3,20.85.65-29,13.08-32.17,27.39,0,0-1.55,1.69-2.53,0S37.42,63.07.2,49c0,0-1.12-.28,2-6.74-2.26-2-2.87-2.12.42-5.9-4.47-1.73-.87-3.64,2.24-9C4.83,27.39.27,9.76,24.08,0Z"/></g></g></svg>